<?xml version="1.0" standalone="no"?>
<!DOCTYPE svg PUBLIC "-//W3C//DTD SVG 20010904//EN"
 "http://www.w3.org/TR/2001/REC-SVG-20010904/DTD/svg10.dtd">
<svg version="1.0" xmlns="http://www.w3.org/2000/svg"
 width="1536.000000pt" height="1024.000000pt" viewBox="0 0 1536.000000 1024.000000"
 preserveAspectRatio="xMidYMid meet">

<g transform="translate(0.000000,1024.000000) scale(0.100000,-0.100000)"
fill="#000000" stroke="none">
<path d="M3540 5675 l0 -835 -190 0 -190 0 0 -115 0 -115 310 0 310 0 0 830 0
830 513 0 c491 0 515 -1 531 -19 9 -10 72 -106 140 -212 l122 -194 -333 -3
-333 -2 0 -120 0 -120 412 -2 412 -3 138 -220 c77 -121 150 -241 163 -267 l25
-47 0 -331 0 -330 -109 0 -109 0 -6 35 c-14 72 -87 196 -155 264 -299 298
-800 168 -927 -241 l-18 -58 -543 0 -543 0 0 -115 0 -115 549 0 548 0 21 -57
c95 -259 368 -415 629 -360 104 23 193 69 269 139 68 64 134 164 155 235 l12
41 141 4 c161 4 197 16 259 88 56 66 59 87 55 475 -3 331 -4 353 -25 408 -21
57 -69 136 -525 879 -235 383 -267 424 -364 463 -47 19 -78 20 -696 23 l-648
3 0 -836z m1405 -1084 c66 -33 115 -82 151 -151 26 -51 31 -183 9 -249 -21
-64 -92 -144 -159 -179 -45 -24 -62 -27 -146 -27 -84 0 -101 3 -146 27 -194
102 -234 362 -80 520 98 101 240 123 371 59z"/>
<path d="M6975 6050 c-172 -27 -293 -109 -353 -238 -24 -50 -27 -69 -27 -162
0 -91 3 -111 25 -155 58 -117 167 -183 420 -253 174 -49 209 -63 253 -102 192
-168 -146 -351 -383 -207 -46 28 -109 99 -122 138 -4 13 -218 -79 -225 -97 -9
-23 57 -134 111 -187 103 -101 244 -150 431 -150 346 -1 567 202 523 481 -15
98 -66 172 -159 232 -64 42 -127 66 -284 110 -199 56 -260 86 -295 143 -65
106 30 208 195 208 113 0 211 -50 257 -131 13 -22 27 -40 31 -40 12 0 220 81
229 89 11 10 -38 103 -79 151 -110 128 -345 201 -548 170z"/>
<path d="M11510 6029 c-125 -32 -213 -82 -299 -168 -88 -88 -132 -158 -172
-273 -72 -211 -62 -403 34 -597 76 -157 238 -288 412 -336 33 -8 112 -18 175
-22 222 -11 383 44 523 181 48 46 127 159 127 181 0 11 -76 47 -198 95 l-32
13 -61 -67 c-45 -49 -79 -75 -137 -103 -74 -37 -79 -38 -187 -38 -105 0 -114
2 -177 33 -223 110 -306 421 -176 664 112 211 374 271 583 133 51 -34 127
-115 137 -146 3 -8 44 1 131 30 l127 43 -30 56 c-41 81 -62 109 -126 174 -68
68 -165 121 -270 148 -104 27 -279 27 -384 -1z"/>
<path d="M7890 5340 l0 -690 140 0 140 0 0 690 0 690 -140 0 -140 0 0 -690z"/>
<path d="M8362 6021 c2 -5 118 -315 258 -690 l255 -681 161 0 161 0 253 678
c139 372 255 683 258 690 3 9 -29 12 -141 12 l-144 0 -20 -52 c-11 -29 -96
-268 -189 -530 -93 -263 -171 -478 -174 -478 -3 1 -19 42 -37 93 -17 50 -102
289 -190 529 l-158 438 -148 0 c-85 0 -147 -4 -145 -9z"/>
<path d="M9900 5340 l0 -690 460 0 460 0 0 125 0 125 -320 0 -320 0 0 165 0
166 280 -3 280 -3 0 123 0 122 -280 0 -280 0 0 155 0 155 315 0 315 0 0 125 0
125 -455 0 -455 0 0 -690z"/>
</g>
</svg>
